<?xml version="1.0" encoding="UTF-8" standalone="no"?>
<!-- Created with Inkscape (http://www.inkscape.org/) -->
<!DOCTYPE svg PUBLIC "-//W3C//DTD SVG 1.1//EN" "http://www.w3.org/Graphics/SVG/1.1/DTD/svg11.dtd">
<svg
   xmlns:svg="http://www.w3.org/2000/svg"
   xmlns="http://www.w3.org/2000/svg"
   version="1.0"
   width="400"
   height="140"
   id="svg2816">
  <defs
     id="defs2818">
    <clipPath
       id="clipPath141">
      <path
         d="m 557.66,70.272 2.5,-1.449 c 0,0 0.66,-0.297 0.96,-0.819 0.28,-0.467 0.3,-0.98 0.3,-0.98 v -5.47 c 0,0 0.02,-0.737 -0.2,-1.178 -0.21,-0.432 -0.46,-0.621 -0.46,-0.621 l -5.4,-3.239 -0.34,-0.197 c -0.26,-0.189 -0.59,-0.522 -0.65,-1.035 V 42.959 c 7.11,2.24 12.19,6.244 12.19,17.165 v 10.148 h -8.9 m -17.15,0 V 60.124 c 0,-10.778 4.99,-14.817 11.97,-17.075 v 12.163 c -0.02,0.54 -0.36,0.891 -0.63,1.098 l -0.36,0.206 -5,2.447 -0.64,0.531 c -0.4,0.405 -0.34,1.718 -0.34,1.718 l 0.01,5.929 c 0,0 -0.05,0.396 0.27,0.828 0.4,0.557 0.78,0.701 0.78,0.701 l 2.78,1.602 h -8.84"
         id="path2821" />
    </clipPath>
  </defs>
  <g
     transform="matrix(2.5333114,0,0,2.5333114,-1039.9562,-537.03208)"
     id="g2823">
    <path
       d="m 440.43,218.04 c -1.97,-1.54 -4.99,-3.04 -9.27,-3.04 -10.77,0 -16.7,7.89 -16.7,15.44 0,8.28 5.45,15.62 16.18,15.62 3.86,0 7.42,-1.37 9.45,-2.74 l -1.63,-2.49 c -1.76,1.2 -4.34,2.23 -7.61,2.23 -6.56,0 -11.8,-5.11 -11.8,-12.7 0,-7.04 4.38,-12.36 11.8,-12.36 3.23,0 6.44,1.46 7.86,2.62 m 20.53,24.93 h 3.82 v -21.46 h -3.86 v 12.53 c 0,4.16 -2.44,6.61 -5.4,6.61 -3.48,0 -5.19,-2.14 -5.19,-6.18 v -12.96 h -3.87 v 13.82 c 0,5.41 2.66,8.15 7.6,8.15 2.79,0 4.72,-1.11 6.9,-3 m 13.95,-18.97 h -3.79 v 21.46 h 3.87 V 234 c 0,-4.76 1.63,-6.73 3.6,-6.73 0.99,0 1.93,0.43 2.88,0.9 l 1.76,-2.49 c -1.2,-1.42 -2.62,-2.1 -3.56,-2.1 -0.91,0 -2.33,0.64 -3.23,1.54 l -1.53,1.63 m 17.45,-9.89 -3.87,1.29 v 5.94 h -3 v 2.63 h 3 v 12.48 c 0,4.37 2.06,6.86 6.35,6.86 1.46,0 3.05,-0.51 4.37,-1.37 l -0.94,-2.15 c -0.73,0.39 -1.55,0.73 -2.96,0.73 -2.36,0 -2.95,-1.8 -2.95,-4.8 v -11.75 h 5.61 v -2.63 h -5.61 m 10.61,21.46 h 3.86 v -21.46 h -3.86 v 21.46 z m 1.93,-24.43 c 1.8,0 2.33,-1.39 2.33,-2.49 0,-1.02 -0.86,-2.16 -2.33,-2.16 -1.47,0 -2.32,1.14 -2.32,2.16 0,1.1 0.53,2.49 2.32,2.49 m 12.08,2.97 h -3.81 v 21.46 h 3.86 v -12.92 c 0,-4.12 2.78,-6.22 5.83,-6.22 3.47,0 5.19,2.1 5.19,6.14 v 13 h 3.86 v -13.82 c 0,-5.41 -2.66,-8.15 -7.59,-8.15 -2.24,0 -5.32,1.03 -7.34,3.17"
       id="path2825"
       style="fill:#231f20;fill-rule:nonzero" />
    <path
       d="m 416.46,251.12 v 5.91 c 0,2.49 1.09,3.92 3.81,3.92 2.33,0 3.67,-1.54 3.67,-3.71 v -6.12 h -1.26 v 6.09 c 0,1.38 -0.6,2.82 -2.41,2.82 -1.73,0 -2.47,-1.05 -2.47,-3.05 v -5.86 m 9.27,2.76 h -1.22 v 6.9 h 1.24 v -4.15 c 0,-1.33 0.89,-2 1.88,-2 1.11,0 1.66,0.67 1.66,1.97 v 4.18 h 1.25 v -4.44 c 0,-1.74 -0.86,-2.62 -2.45,-2.62 -0.72,0 -1.7,0.33 -2.36,1.02 m 6.85,6.04 h 1.24 v -6.9 h -1.24 v 6.9 z m 0.62,-8.33 c 0.61,0 0.79,-0.47 0.79,-0.84 0,-0.35 -0.29,-0.74 -0.79,-0.74 -0.5,0 -0.79,0.39 -0.79,0.74 0,0.37 0.18,0.84 0.79,0.84 m 5.34,8.33 2.99,-6.79 -1.09,-0.24 c -0.73,1.75 -1.45,3.51 -2.17,5.6 h -0.03 c -0.69,-2.09 -1.39,-3.85 -2.09,-5.6 l -1.25,0.33 2.86,6.7 m 10.33,-3.36 c 0.14,-1.81 -0.58,-3.7 -2.67,-3.7 -1.56,0 -3.27,1.09 -3.27,3.48 0,2.42 1.42,3.75 3.57,3.75 0.72,0 1.58,-0.29 2.29,-0.8 l -0.36,-0.68 c -0.47,0.36 -1.25,0.6 -1.88,0.6 -1.37,0 -2.35,-1.27 -2.34,-2.65 h 4.66 z m -4.57,-0.83 c 0.04,-0.89 0.56,-1.99 1.89,-1.99 1.09,0 1.54,0.91 1.54,1.99 m 3.87,-2.71 h -1.21 v 6.9 h 1.24 v -3.71 c 0,-1.53 0.54,-2.17 1.16,-2.17 0.32,0 0.63,0.14 0.93,0.29 l 0.57,-0.8 c -0.39,-0.45 -0.84,-0.67 -1.15,-0.67 -0.29,0 -0.74,0.2 -1.04,0.49 l -0.5,0.53 m 7.46,-0.39 c -0.36,-0.36 -1.02,-0.63 -1.7,-0.63 -1.22,0 -2.29,0.69 -2.29,1.78 0,0.94 0.69,1.41 1.47,1.97 0.65,0.47 1.37,0.82 1.37,1.62 0,0.67 -0.59,0.98 -1.18,0.98 -0.55,0 -1.08,-0.32 -1.48,-0.69 l -0.61,0.7 c 0.45,0.52 1.34,0.87 2.13,0.87 1.27,0 2.41,-0.79 2.41,-1.95 0,-0.96 -0.58,-1.53 -1.46,-2.2 -0.78,-0.6 -1.42,-0.89 -1.42,-1.47 0,-0.58 0.56,-0.78 1.01,-0.78 0.37,0 0.77,0.11 1.27,0.44 m 2.12,5.79 h 1.24 v -6.9 h -1.24 v 6.9 z m 0.61,-8.33 c 0.62,0 0.8,-0.47 0.8,-0.84 0,-0.35 -0.3,-0.74 -0.8,-0.74 -0.48,0 -0.78,0.39 -0.78,0.74 0,0.37 0.18,0.84 0.78,0.84 m 4.2,-0.64 -1.25,0.42 v 1.65 h -0.96 v 0.72 h 0.96 v 4.14 c 0,1.41 0.67,2.21 2.05,2.21 0.46,0 0.98,-0.17 1.41,-0.44 l -0.31,-0.69 c -0.23,0.12 -0.5,0.23 -0.95,0.23 -0.76,0 -0.95,-0.58 -0.95,-1.54 v -3.91 h 1.8 v -0.72 h -1.8 m 2.33,0.21 2.71,6.31 c -0.99,2.73 -1.59,2.95 -2.45,2.95 h -0.48 v 0.89 h 0.62 c 1.18,0 2.04,-0.78 2.69,-2.24 l 3.55,-7.99 -1.09,-0.27 c -0.73,1.76 -1.45,3.52 -2.16,5.61 h -0.04 c -0.68,-2.09 -1.41,-3.85 -2.11,-5.61"
       id="path2827"
       style="fill:#007f60;fill-rule:nonzero" />
    <path
       d="m 482.04,260.95 c 2.04,0 3.41,-1.56 3.41,-3.7 0,-2.23 -1.66,-3.53 -3.41,-3.53 -1.74,0 -3.39,1.3 -3.39,3.53 0,2.14 1.36,3.7 3.39,3.7 m 0,-6.35 c 1.57,0 2.08,1.41 2.08,2.65 0,1.3 -0.45,2.82 -2.08,2.82 -1.61,0 -2.06,-1.52 -2.06,-2.82 0,-1.24 0.52,-2.65 2.06,-2.65 m 6.3,6.18 v -6.18 h 1.65 v -0.72 h -1.65 v -1.24 c 0,-1.12 0.7,-1.17 0.91,-1.17 0.27,0 0.46,0.04 0.66,0.09 l 0.29,-0.63 c -0.31,-0.22 -0.73,-0.29 -1.09,-0.29 -0.77,0 -2.01,0.55 -2.01,2.4 v 0.84 h -1.12 v 0.72 h 1.12 v 6.18"
       id="path2829"
       style="fill:#007f60;fill-rule:evenodd" />
    <path
       d="m 497.99,260.78 v -8.69 h 3.11 v -0.97 h -7.54 v 0.97 h 3.09 v 8.69 m 10,-3.36 c 0.14,-1.81 -0.56,-3.7 -2.66,-3.7 -1.55,0 -3.27,1.09 -3.27,3.48 0,2.42 1.42,3.75 3.57,3.75 0.72,0 1.58,-0.29 2.3,-0.8 l -0.36,-0.68 c -0.49,0.36 -1.26,0.6 -1.9,0.6 -1.35,0 -2.34,-1.27 -2.33,-2.65 h 4.65 z m -4.56,-0.83 c 0.04,-0.89 0.57,-1.99 1.89,-1.99 1.09,0 1.54,0.91 1.54,1.99 m 7.62,2.95 c -0.54,0.35 -1.09,0.5 -1.68,0.5 -1.68,0 -2.41,-1.35 -2.41,-2.79 0,-1.88 1.28,-2.62 2.42,-2.62 0.51,0 1.03,0.16 1.42,0.36 l 0.41,-0.71 c -0.51,-0.38 -1.14,-0.56 -1.84,-0.56 -2.6,0 -3.75,1.87 -3.75,3.6 0,0.95 0.42,3.63 3.69,3.63 0.6,0 1.4,-0.23 2.08,-0.72 m 2.57,-9.59 h -1.23 v 10.14 h 1.25 v -4.15 c 0,-1.33 0.89,-2 1.88,-2 1.11,0 1.66,0.67 1.66,1.97 v 4.18 h 1.24 v -4.44 c 0,-1.74 -0.85,-2.62 -2.44,-2.62 -0.72,0 -1.7,0.33 -2.36,1.02 m 8.08,-0.86 h -1.23 v 6.9 h 1.24 v -4.15 c 0,-1.33 0.9,-2 1.87,-2 1.13,0 1.68,0.67 1.68,1.97 v 4.18 h 1.24 v -4.44 c 0,-1.74 -0.86,-2.62 -2.45,-2.62 -0.71,0 -1.71,0.33 -2.35,1.02 m 9.76,6.21 c 2.05,0 3.41,-1.56 3.41,-3.7 0,-2.23 -1.66,-3.53 -3.41,-3.53 -1.74,0 -3.39,1.3 -3.39,3.53 0,2.14 1.37,3.7 3.39,3.7 m 0,-6.35 c 1.57,0 2.08,1.41 2.08,2.65 0,1.3 -0.45,2.82 -2.08,2.82 -1.61,0 -2.06,-1.52 -2.06,-2.82 0,-1.24 0.52,-2.65 2.06,-2.65 m 4.98,6.18 h 1.24 v -10.14 h -1.24 v 10.14 z m 6.2,0.17 c 2.05,0 3.42,-1.56 3.42,-3.7 0,-2.23 -1.67,-3.53 -3.42,-3.53 -1.73,0 -3.39,1.3 -3.39,3.53 0,2.14 1.37,3.7 3.39,3.7 m 0,-6.35 c 1.57,0 2.08,1.41 2.08,2.65 0,1.3 -0.44,2.82 -2.08,2.82 -1.61,0 -2.05,-1.52 -2.05,-2.82 0,-1.24 0.52,-2.65 2.05,-2.65 m 4.93,4.68 c 0.51,1.04 1.45,1.67 2.69,1.67 1.08,0 1.81,-0.58 2.3,-1.26 h 0.03 v 0.94 c 0,1.81 -0.87,2.72 -2.3,2.72 -0.85,0 -1.62,-0.14 -2.47,-0.62 l -0.34,0.82 c 0.79,0.49 1.82,0.69 2.84,0.69 1.87,0 3.51,-1.07 3.51,-3.7 v -1.26 h -1.82 c -0.35,0.48 -0.86,0.79 -1.56,0.79 -0.62,0 -1.09,-0.31 -1.41,-0.79 -0.36,-0.54 -0.54,-1.3 -0.54,-2.08 0,-1.47 0.59,-2.6 2.03,-2.6 1.35,0 2.06,1.21 2.06,2.51 0,0.82 -0.19,1.61 -0.58,2.17 h 1.82 v -5.4 h -1.24 v 0.96 h -0.03 c -0.39,-0.71 -1.27,-1.12 -2.1,-1.12 -1.97,0 -3.3,1.74 -3.3,3.53 0,0.78 0.15,1.46 0.42,2.03 m 7.36,-5.19 2.71,6.31 c -0.98,2.73 -1.58,2.95 -2.44,2.95 h -0.49 v 0.89 h 0.63 c 1.18,0 2.04,-0.78 2.69,-2.24 l 3.54,-7.99 -1.08,-0.27 c -0.73,1.76 -1.46,3.52 -2.18,5.61 h -0.02 c -0.7,-2.09 -1.41,-3.85 -2.12,-5.61"
       id="path2831"
       style="fill:#007f60;fill-rule:nonzero" />
    <g
       transform="matrix(1.06061,0,0,-1.06061,-36.4379,291.194)"
       clip-path="url(#clipPath141)"
       id="g2833">
      <path
         d="m 540.51,46.214 h 26.05 v 1.836 h -26.05 v -1.836 z"
         id="path2835"
         style="fill:#c29709;fill-rule:nonzero" />
      <path
         d="m 540.51,49.399 h 26.05 v 1.837 h -26.05 v -1.837 z"
         id="path2837"
         style="fill:#c29709;fill-rule:nonzero" />
      <path
         d="m 540.51,52.586 h 26.05 v 1.837 h -26.05 v -1.837 z"
         id="path2839"
         style="fill:#c29709;fill-rule:nonzero" />
      <path
         d="m 540.51,55.774 h 26.05 v 1.836 h -26.05 v -1.836 z"
         id="path2841"
         style="fill:#c29709;fill-rule:nonzero" />
      <path
         d="m 540.51,58.96 h 26.05 v 1.836 H 540.51 V 58.96 z"
         id="path2843"
         style="fill:#c29709;fill-rule:nonzero" />
      <path
         d="m 540.51,62.146 h 26.05 v 1.837 h -26.05 v -1.837 z"
         id="path2845"
         style="fill:#c29709;fill-rule:nonzero" />
      <path
         d="m 540.51,65.333 h 26.05 v 1.836 h -26.05 v -1.836 z"
         id="path2847"
         style="fill:#c29709;fill-rule:nonzero" />
      <path
         d="m 540.51,68.519 h 26.05 v 1.752 h -26.05 v -1.752 z"
         id="path2849"
         style="fill:#c29709;fill-rule:nonzero" />
      <path
         d="m 540.51,42.959 h 26.05 v 1.881 h -26.05 v -1.881 z"
         id="path2851"
         style="fill:#c29709;fill-rule:nonzero" />
    </g>
    <path
       d="m 550.68,215.38 5.56,3.2 c 0,0 0.54,0.25 0.79,0.69 0.24,0.39 0.25,0.81 0.25,0.81 v 4.99 c 0,0 0.02,0.62 -0.16,0.98 -0.18,0.36 -0.39,0.53 -0.39,0.53 l -5.13,3.06 c 0,0 -0.49,0.33 -0.92,0.33 -0.42,0 -1.04,-0.33 -1.04,-0.33 l -4.8,-2.84 c 0,0 -0.21,-0.06 -0.54,-0.45 -0.32,-0.39 -0.27,-1.08 -0.27,-0.98 v -5.39 c 0,0 -0.04,-0.32 0.23,-0.68 0.34,-0.47 0.64,-0.59 0.64,-0.59"
       id="path2853"
       style="fill:#c29709;fill-rule:nonzero" />
  </g>
</svg>
